<?xml version="1.0" encoding="UTF-8" standalone="no"?>
<!-- Created with Inkscape (http://www.inkscape.org/) -->

<svg
   width="210mm"
   height="297mm"
   viewBox="0 0 210 297"
   version="1.1"
   id="svg1"
   inkscape:version="1.4.2 (ebf0e940, 2025-05-08)"
   sodipodi:docname="drawing2.svg"
   xmlns:inkscape="http://www.inkscape.org/namespaces/inkscape"
   xmlns:sodipodi="http://sodipodi.sourceforge.net/DTD/sodipodi-0.dtd"
   xmlns="http://www.w3.org/2000/svg"
   xmlns:svg="http://www.w3.org/2000/svg">
  <sodipodi:namedview
     id="namedview1"
     pagecolor="#ffffff"
     bordercolor="#000000"
     borderopacity="0.25"
     inkscape:showpageshadow="2"
     inkscape:pageopacity="0.0"
     inkscape:pagecheckerboard="0"
     inkscape:deskcolor="#d1d1d1"
     inkscape:document-units="mm"
     inkscape:zoom="0.27"
     inkscape:cx="398.14815"
     inkscape:cy="564.81481"
     inkscape:window-width="1296"
     inkscape:window-height="652"
     inkscape:window-x="0"
     inkscape:window-y="38"
     inkscape:window-maximized="0"
     inkscape:current-layer="layer1"
     showgrid="false" />
  <defs
     id="defs1" />
  <g
     inkscape:label="Layer 1"
     inkscape:groupmode="layer"
     id="layer1">
    <g
       id="g95"
       transform="matrix(0.26458333,0,0,0.26458333,-175.96439,-18.072815)"
       clip-path="none">
      <g
         id="g83">
        <path
           class="st4"
           d="m 535.55,698.34 c 0,-10.33 7.55,-18.28 18.94,-18.28 5.47,0 9.12,1.72 11.04,2.94 0.51,0.3 0.56,0.81 0.3,1.32 l -2.18,3.9 c -0.3,0.56 -0.76,0.66 -1.27,0.3 -1.37,-0.76 -3.85,-1.93 -7.5,-1.93 -7.34,0 -12.16,4.61 -12.16,11.7 0,7.09 4.76,11.75 12.16,11.75 3.65,0 6.13,-1.11 7.5,-1.87 0.51,-0.3 0.96,-0.2 1.27,0.3 l 2.18,3.9 c 0.25,0.51 0.25,0.96 -0.41,1.37 -1.52,1.01 -5.17,2.84 -10.94,2.84 -11.43,-0.01 -18.93,-7.96 -18.93,-18.24 z"
           id="path65"
           style="fill:#20bbff" />
        <path
           class="st4"
           d="m 568.58,698.39 c 0,-10.33 7.95,-18.34 18.84,-18.34 10.79,0 18.64,7.8 18.64,18.34 0,10.43 -7.85,18.18 -18.64,18.18 -10.89,0 -18.84,-7.9 -18.84,-18.18 z m 30.34,0 c 0,-6.79 -4.91,-11.85 -11.5,-11.85 -6.74,0 -11.7,5.12 -11.7,11.85 0,6.69 4.96,11.75 11.7,11.75 6.58,0 11.5,-5.01 11.5,-11.75 z"
           id="path66"
           style="fill:#20bbff" />
        <path
           class="st4"
           d="m 650.23,715.21 c 0,0.66 -0.35,0.91 -0.96,0.91 h -4.91 c -0.66,0 -0.96,-0.36 -0.96,-0.91 l -0.3,-20.46 -9.47,16.56 c -0.2,0.46 -0.61,0.66 -1.11,0.66 h -2.89 c -0.51,0 -0.86,-0.2 -1.11,-0.66 l -9.22,-16.56 -0.3,20.46 c 0,0.56 -0.36,0.91 -0.96,0.91 h -4.96 c -0.66,0 -0.91,-0.3 -0.91,-0.91 l 1.01,-33.78 c 0,-0.56 0.3,-0.91 1.01,-0.91 h 2.68 c 0.51,0 0.86,0.2 1.11,0.66 l 13.12,22.74 13.37,-22.74 c 0.25,-0.46 0.61,-0.66 1.11,-0.66 h 2.63 c 0.66,0 1.06,0.36 1.06,0.96 z"
           id="path67"
           style="fill:#20bbff" />
        <path
           class="st4"
           d="m 685.54,693.38 c 0,7.7 -6.03,12.46 -14.84,12.51 h -5.27 v 9.32 c 0,0.56 -0.35,0.91 -0.91,0.91 h -5.12 c -0.61,0 -0.96,-0.36 -0.96,-0.91 v -33.78 c 0,-0.56 0.36,-0.91 0.96,-0.91 H 671 c 8.61,-0.01 14.54,5.01 14.54,12.86 z m -7.2,-0.11 c 0,-3.6 -2.84,-6.58 -7.7,-6.58 h -5.22 v 12.97 h 5.22 c 4.97,0 7.7,-2.89 7.7,-6.39 z"
           id="path68"
           style="fill:#20bbff" />
        <path
           class="st4"
           d="m 715.42,710.9 v 4.31 c 0,0.56 -0.35,0.91 -0.96,0.91 h -22.28 c -0.61,0 -0.96,-0.36 -0.96,-0.91 v -33.78 c 0,-0.56 0.36,-0.91 0.96,-0.91 h 5.12 c 0.56,0 0.91,0.36 0.91,0.91 V 710 h 16.26 c 0.6,-0.01 0.95,0.29 0.95,0.9 z"
           id="path69"
           style="fill:#20bbff" />
        <path
           class="st4"
           d="m 720.19,715.21 v -33.78 c 0,-0.56 0.36,-0.91 0.96,-0.91 h 5.12 c 0.56,0 0.91,0.36 0.91,0.91 v 33.78 c 0,0.56 -0.35,0.91 -0.91,0.91 h -5.12 c -0.61,0 -0.96,-0.36 -0.96,-0.91 z"
           id="path70"
           style="fill:#20bbff" />
        <path
           class="st4"
           d="m 765.82,716.12 h -5.42 c -0.51,0 -0.86,-0.25 -1.06,-0.76 l -2.53,-6.13 h -15.25 l -2.53,6.13 c -0.2,0.51 -0.56,0.76 -1.06,0.76 h -5.42 c -0.71,0 -1.01,-0.41 -0.76,-1.06 l 14.84,-33.83 c 0.15,-0.46 0.61,-0.71 1.11,-0.71 h 3.04 c 0.51,0 0.91,0.25 1.11,0.71 l 14.69,33.83 c 0.26,0.65 -0.05,1.06 -0.76,1.06 z M 743.79,703.3 h 10.79 l -5.37,-12.86 z"
           id="path71"
           style="fill:#20bbff" />
        <path
           class="st4"
           d="m 803.36,681.42 v 34.19 c 0,0.61 -0.35,0.91 -0.96,0.91 h -2.28 c -0.51,0 -0.86,-0.15 -1.16,-0.51 l -20.77,-23.3 v 22.49 c 0,0.56 -0.35,0.91 -0.96,0.91 h -4.96 c -0.56,0 -0.91,-0.36 -0.91,-0.91 v -34.14 c 0,-0.56 0.35,-0.91 0.91,-0.91 h 2.33 c 0.51,0 0.86,0.2 1.16,0.51 l 20.71,23.25 v -22.49 c 0,-0.56 0.35,-0.91 0.91,-0.91 h 5.01 c 0.61,0 0.97,0.36 0.97,0.91 z"
           id="path72"
           style="fill:#20bbff" />
        <path
           class="st4"
           d="m 809.85,698.34 c 0,-10.33 7.55,-18.28 18.94,-18.28 5.47,0 9.12,1.72 11.04,2.94 0.51,0.3 0.56,0.81 0.3,1.32 l -2.18,3.9 c -0.3,0.56 -0.76,0.66 -1.27,0.3 -1.37,-0.76 -3.85,-1.93 -7.5,-1.93 -7.34,0 -12.16,4.61 -12.16,11.7 0,7.09 4.76,11.75 12.16,11.75 3.65,0 6.13,-1.11 7.5,-1.87 0.51,-0.3 0.96,-0.2 1.27,0.3 l 2.18,3.9 c 0.25,0.51 0.25,0.96 -0.41,1.37 -1.52,1.01 -5.17,2.84 -10.94,2.84 -11.44,-0.01 -18.93,-7.96 -18.93,-18.24 z"
           id="path73"
           style="fill:#20bbff" />
        <path
           class="st4"
           d="m 870.58,710.9 v 4.31 c 0,0.56 -0.35,0.91 -0.91,0.91 h -22.69 c -0.61,0 -0.96,-0.36 -0.96,-0.91 v -33.78 c 0,-0.56 0.35,-0.91 0.96,-0.91 h 22.49 c 0.61,0 0.96,0.36 0.96,0.91 v 4.31 c 0,0.61 -0.35,0.96 -0.96,0.96 H 853 v 8.36 h 14.38 c 0.61,0 0.96,0.36 0.96,0.96 v 4.31 c 0,0.56 -0.35,0.91 -0.96,0.91 H 853 V 710 h 16.66 c 0.56,-0.01 0.92,0.29 0.92,0.9 z"
           id="path74"
           style="fill:#20bbff" />
        <path
           class="st4"
           d="m 887.04,712.88 c -0.46,-0.36 -0.56,-0.91 -0.25,-1.47 l 2.43,-3.85 c 0.25,-0.51 0.76,-0.61 1.27,-0.25 2.99,2.18 6.28,3.19 9.72,3.19 3.19,0 5.57,-1.37 5.57,-4.25 0,-2.84 -2.03,-4.1 -7.34,-5.57 -6.03,-1.67 -10.74,-4 -10.74,-10.23 0,-6.28 5.17,-10.38 12.81,-10.38 4.76,0 8.51,1.22 11.19,3.09 0.51,0.35 0.51,0.86 0.2,1.32 l -2.18,3.6 c -0.3,0.56 -0.86,0.66 -1.37,0.3 -2.23,-1.42 -4.71,-2.23 -7.9,-2.23 -3.24,0 -5.67,1.22 -5.67,3.85 0,2.58 2.33,3.39 7.24,4.86 6.03,1.77 10.69,4.1 10.69,10.94 0,6.64 -5.01,10.79 -12.61,10.79 -5.51,-0.02 -9.76,-1.38 -13.06,-3.71 z"
           id="path75"
           style="fill:#20bbff" />
        <path
           class="st4"
           d="m 917.08,698.39 c 0,-10.33 7.95,-18.34 18.84,-18.34 10.79,0 18.64,7.8 18.64,18.34 0,10.43 -7.85,18.18 -18.64,18.18 -10.89,0 -18.84,-7.9 -18.84,-18.18 z m 30.34,0 c 0,-6.79 -4.91,-11.85 -11.5,-11.85 -6.74,0 -11.7,5.12 -11.7,11.85 0,6.69 4.96,11.75 11.7,11.75 6.59,0 11.5,-5.01 11.5,-11.75 z"
           id="path76"
           style="fill:#20bbff" />
        <path
           class="st4"
           d="m 985.26,710.9 v 4.31 c 0,0.56 -0.35,0.91 -0.96,0.91 h -22.28 c -0.61,0 -0.96,-0.36 -0.96,-0.91 v -33.78 c 0,-0.56 0.36,-0.91 0.96,-0.91 h 5.12 c 0.56,0 0.91,0.36 0.91,0.91 V 710 h 16.26 c 0.6,-0.01 0.95,0.29 0.95,0.9 z"
           id="path77"
           style="fill:#20bbff" />
        <path
           class="st4"
           d="m 988.56,700.82 v -19.4 c 0,-0.56 0.3,-0.91 0.91,-0.91 h 5.17 c 0.61,0 0.91,0.36 0.91,0.91 v 19.95 c 0,4.81 2.84,8.86 8.71,8.86 5.82,0 8.66,-4.05 8.66,-8.86 v -19.95 c 0,-0.56 0.3,-0.91 0.91,-0.91 h 5.12 c 0.56,0 0.91,0.36 0.91,0.91 v 19.4 c 0,10.28 -6.23,15.75 -15.65,15.75 -9.42,0 -15.65,-5.47 -15.65,-15.75 z"
           id="path78"
           style="fill:#20bbff" />
        <path
           class="st4"
           d="m 1054.91,681.42 v 4.31 c 0,0.61 -0.35,0.96 -0.96,0.96 h -10.84 v 28.51 c 0,0.56 -0.35,0.91 -0.96,0.91 h -5.12 c -0.61,0 -0.91,-0.36 -0.91,-0.91 v -28.51 h -10.94 c -0.61,0 -0.91,-0.35 -0.91,-0.96 v -4.31 c 0,-0.56 0.3,-0.91 0.91,-0.91 h 28.77 c 0.61,0 0.96,0.36 0.96,0.91 z"
           id="path79"
           style="fill:#20bbff" />
        <path
           class="st4"
           d="m 1059.73,715.21 v -33.78 c 0,-0.56 0.36,-0.91 0.96,-0.91 h 5.12 c 0.56,0 0.91,0.36 0.91,0.91 v 33.78 c 0,0.56 -0.35,0.91 -0.91,0.91 h -5.12 c -0.61,0 -0.96,-0.36 -0.96,-0.91 z"
           id="path80"
           style="fill:#20bbff" />
        <path
           class="st4"
           d="m 1073.15,698.39 c 0,-10.33 7.95,-18.34 18.84,-18.34 10.79,0 18.64,7.8 18.64,18.34 0,10.43 -7.85,18.18 -18.64,18.18 -10.89,0 -18.84,-7.9 -18.84,-18.18 z m 30.34,0 c 0,-6.79 -4.91,-11.85 -11.5,-11.85 -6.74,0 -11.7,5.12 -11.7,11.85 0,6.69 4.96,11.75 11.7,11.75 6.59,0 11.5,-5.01 11.5,-11.75 z"
           id="path81"
           style="fill:#20bbff" />
        <path
           class="st4"
           d="m 1149.18,681.42 v 34.19 c 0,0.61 -0.35,0.91 -0.96,0.91 h -2.28 c -0.51,0 -0.86,-0.15 -1.16,-0.51 l -20.77,-23.3 v 22.49 c 0,0.56 -0.35,0.91 -0.96,0.91 h -4.96 c -0.56,0 -0.91,-0.36 -0.91,-0.91 v -34.14 c 0,-0.56 0.35,-0.91 0.91,-0.91 h 2.33 c 0.51,0 0.86,0.2 1.16,0.51 l 20.71,23.25 v -22.49 c 0,-0.56 0.35,-0.91 0.91,-0.91 h 5.01 c 0.61,0 0.97,0.36 0.97,0.91 z"
           id="path82"
           style="fill:#20bbff" />
        <path
           class="st4"
           d="m 1155.57,712.88 c -0.46,-0.36 -0.56,-0.91 -0.25,-1.47 l 2.43,-3.85 c 0.25,-0.51 0.76,-0.61 1.27,-0.25 2.99,2.18 6.28,3.19 9.72,3.19 3.19,0 5.57,-1.37 5.57,-4.25 0,-2.84 -2.03,-4.1 -7.34,-5.57 -6.03,-1.67 -10.74,-4 -10.74,-10.23 0,-6.28 5.17,-10.38 12.81,-10.38 4.76,0 8.51,1.22 11.19,3.09 0.51,0.35 0.51,0.86 0.2,1.32 l -2.18,3.6 c -0.3,0.56 -0.86,0.66 -1.37,0.3 -2.23,-1.42 -4.71,-2.23 -7.9,-2.23 -3.24,0 -5.67,1.22 -5.67,3.85 0,2.58 2.33,3.39 7.24,4.86 6.03,1.77 10.69,4.1 10.69,10.94 0,6.64 -5.01,10.79 -12.61,10.79 -5.52,-0.02 -9.77,-1.38 -13.06,-3.71 z"
           id="path83"
           style="fill:#20bbff" />
      </g>
      <path
         class="st5"
         d="m 656.32,661.82 c -0.48,-0.48 -1,-0.72 -1.54,-0.72 h -4.96 L 612.46,525.69 h 2.47 c 0.7,0 1.24,-0.25 1.65,-0.72 0.41,-0.49 0.63,-1.04 0.63,-1.65 0,-0.61 -0.22,-1.13 -0.63,-1.54 -0.41,-0.42 -0.96,-0.63 -1.65,-0.63 h -35.5 c -0.41,0 -0.79,0.11 -1.13,0.31 -0.34,0.21 -0.62,0.48 -0.82,0.82 -0.21,0.36 -0.31,0.72 -0.31,1.13 0,0.56 0.25,1.07 0.72,1.56 0.48,0.48 1,0.72 1.54,0.72 h 4.55 l 0.21,0.82 -21.48,77.2 v 0.41 l -15.68,56.98 h -4.13 c -0.7,0 -1.24,0.25 -1.65,0.72 -0.41,0.48 -0.62,1.03 -0.62,1.65 0,0.62 0.21,1.13 0.62,1.54 0.41,0.41 0.96,0.62 1.65,0.62 h 12.59 c 0.68,0 1.23,-0.21 1.65,-0.62 0.41,-0.41 0.62,-0.93 0.62,-1.54 0,-0.63 -0.21,-1.18 -0.62,-1.65 -0.42,-0.48 -0.97,-0.72 -1.65,-0.72 h -3.72 l 14.86,-54.29 h 39.63 l 1.54,5.65 13.32,48.64 h -3.91 c -0.7,0 -1.24,0.25 -1.65,0.72 -0.41,0.48 -0.63,1.03 -0.63,1.65 0,0.62 0.22,1.13 0.63,1.54 0.41,0.41 0.96,0.62 1.65,0.62 h 37.57 c 0.55,0 1.07,-0.21 1.54,-0.62 0.48,-0.41 0.72,-0.93 0.72,-1.54 0,-0.63 -0.24,-1.17 -0.72,-1.65 z m -88.45,-59.55 18.58,-67.3 2.21,8.02 16.36,59.28 z"
         id="path84"
         style="fill:#0078c6" />
      <path
         class="st5"
         d="m 656.32,661.82 c -0.48,-0.48 -1,-0.72 -1.54,-0.72 h -4.96 L 612.46,525.69 h 2.47 c 0.7,0 1.24,-0.25 1.65,-0.72 0.41,-0.49 0.63,-1.04 0.63,-1.65 0,-0.61 -0.22,-1.13 -0.63,-1.54 -0.41,-0.42 -0.96,-0.63 -1.65,-0.63 h -35.5 c -0.41,0 -0.79,0.11 -1.13,0.31 -0.34,0.21 -0.62,0.48 -0.82,0.82 -0.21,0.36 -0.31,0.72 -0.31,1.13 0,0.56 0.25,1.07 0.72,1.56 0.48,0.48 1,0.72 1.54,0.72 h 4.55 l 0.21,0.82 -21.48,77.2 v 0.41 l -15.68,56.98 h -4.13 c -0.7,0 -1.24,0.25 -1.65,0.72 -0.41,0.48 -0.62,1.03 -0.62,1.65 0,0.62 0.21,1.13 0.62,1.54 0.41,0.41 0.96,0.62 1.65,0.62 h 12.59 c 0.68,0 1.23,-0.21 1.65,-0.62 0.41,-0.41 0.62,-0.93 0.62,-1.54 0,-0.63 -0.21,-1.18 -0.62,-1.65 -0.42,-0.48 -0.97,-0.72 -1.65,-0.72 h -3.72 l 14.86,-54.29 h 39.63 l 1.54,5.65 13.32,48.64 h -3.91 c -0.7,0 -1.24,0.25 -1.65,0.72 -0.41,0.48 -0.63,1.03 -0.63,1.65 0,0.62 0.22,1.13 0.63,1.54 0.41,0.41 0.96,0.62 1.65,0.62 h 37.57 c 0.55,0 1.07,-0.21 1.54,-0.62 0.48,-0.41 0.72,-0.93 0.72,-1.54 0,-0.63 -0.24,-1.17 -0.72,-1.65 z m -88.45,-59.55 18.58,-67.3 2.21,8.02 16.36,59.28 z"
         id="path85"
         style="fill:#0078c6" />
      <path
         class="st5"
         d="m 725.98,521.14 h 1.24 c 9.63,0 17.96,2.65 24.98,7.95 7.02,5.3 11.69,12.83 14.04,22.6 v 0.21 l 0.21,0.41 v 0.21 0.21 l 0.21,0.21 v 0.41 0.21 0.21 l 0.21,0.41 v 0.21 0.21 0.21 l 0.21,0.41 v 0.21 0.21 0.41 0.21 l 0.21,0.21 v 0.41 0.21 0.21 0.41 0.21 l 0.21,0.21 v 0.21 0.41 0.21 0.21 0.41 0.21 0.21 0.62 0.21 l 0.21,0.41 v 0.21 0.21 0.41 0.41 0.21 0.41 0.21 0.21 0.41 0.21 c -0.28,11.56 -3.99,21.23 -11.15,29 -7.16,7.78 -16.59,11.66 -28.28,11.66 h -30.34 v 56.35 h 4.75 c 0.69,0 1.24,0.21 1.65,0.62 0.41,0.41 0.62,0.96 0.62,1.65 0,0.69 -0.21,1.24 -0.62,1.65 -0.41,0.41 -0.96,0.62 -1.65,0.62 h -37.36 c -0.69,0 -1.24,-0.21 -1.65,-0.62 -0.41,-0.41 -0.62,-0.96 -0.62,-1.65 0,-0.69 0.21,-1.24 0.62,-1.65 0.41,-0.41 0.96,-0.62 1.65,-0.62 h 4.95 V 525.68 h -4.95 c -0.69,0 -1.24,-0.24 -1.65,-0.72 -0.41,-0.48 -0.62,-1 -0.62,-1.55 0,-0.41 0.1,-0.79 0.31,-1.14 0.21,-0.34 0.48,-0.62 0.83,-0.83 0.34,-0.21 0.72,-0.31 1.14,-0.31 13.44,0.01 33.67,0.01 60.64,0.01 z M 697.7,600.2 h 6.4 c 8.39,0 15.38,-1.96 20.95,-5.88 5.57,-3.92 9.6,-9.05 12.08,-15.38 1.79,-4.82 2.68,-9.91 2.68,-15.28 0,-5.37 -0.96,-10.53 -2.89,-15.48 -2.48,-6.61 -6.37,-11.97 -11.66,-16.1 -5.3,-4.13 -11.66,-6.26 -19.09,-6.4 h -8.46 v 74.52 z"
         id="path86"
         style="fill:#0078c6" />
      <path
         class="st5"
         d="m 832.91,525.68 37.36,135.41 h 4.95 c 0.55,0 1.06,0.24 1.55,0.72 0.48,0.48 0.72,1.03 0.72,1.65 0,0.62 -0.24,1.14 -0.72,1.55 -0.48,0.41 -1,0.62 -1.55,0.62 h -37.57 c -0.69,0 -1.24,-0.21 -1.65,-0.62 -0.41,-0.41 -0.62,-0.93 -0.62,-1.55 0,-0.62 0.21,-1.17 0.62,-1.65 0.41,-0.48 0.96,-0.72 1.65,-0.72 h 3.92 L 826.71,606.8 h -39.63 l -14.86,54.29 h 3.72 c 0.69,0 1.24,0.24 1.65,0.72 0.41,0.48 0.62,1.03 0.62,1.65 0,0.62 -0.21,1.14 -0.62,1.55 -0.41,0.41 -0.96,0.62 -1.65,0.62 h -12.59 c -0.69,0 -1.24,-0.21 -1.65,-0.62 -0.41,-0.41 -0.62,-0.93 -0.62,-1.55 0,-0.62 0.21,-1.17 0.62,-1.65 0.41,-0.48 0.96,-0.72 1.65,-0.72 h 4.13 l 15.69,-56.97 c 0,-0.14 0,-0.28 0,-0.41 l 21.47,-77.2 -0.21,-0.83 h -4.54 c -0.55,0 -1.07,-0.24 -1.55,-0.72 -0.48,-0.48 -0.72,-1 -0.72,-1.55 0,-0.41 0.1,-0.79 0.31,-1.14 0.21,-0.34 0.48,-0.62 0.83,-0.83 0.34,-0.21 0.72,-0.31 1.14,-0.31 h 35.5 c 0.69,0 1.24,0.21 1.65,0.62 0.41,0.41 0.62,0.93 0.62,1.55 0,0.62 -0.21,1.17 -0.62,1.65 -0.41,0.48 -0.96,0.72 -1.65,0.72 h -2.49 z m -7.43,76.58 -18.58,-67.29 -18.58,67.29 z"
         id="path87"
         style="fill:#0078c6" />
      <path
         class="st5"
         d="m 947.68,521.14 c 10.32,0 18.96,2.93 25.91,8.77 6.95,5.85 11.46,13.52 13.52,23.02 v 0.41 0.21 0.21 l 0.21,0.41 v 0.21 0.21 0.21 l 0.21,0.41 v 0.21 0.21 0.41 0.21 l 0.21,0.21 v 0.41 0.21 0.21 0.41 0.21 0.21 l 0.21,0.21 v 0.41 0.21 0.21 0.41 0.21 0.21 0.62 0.21 l 0.21,0.41 v 0.21 0.21 0.41 0.21 0.21 0.21 0.41 0.21 0.21 0.41 0.21 c -0.14,3.3 -0.55,6.54 -1.24,9.7 v 0.21 l -0.21,0.41 v 0.21 0.21 l -0.21,0.21 v 0.41 0.21 c -1.93,7.02 -5.3,13.04 -10.11,18.06 -4.82,5.03 -10.8,8.36 -17.96,10.01 l 27.25,57.39 h 6.19 c 0.55,0 1.06,0.21 1.55,0.62 0.48,0.41 0.72,0.96 0.72,1.65 0,0.69 -0.24,1.24 -0.72,1.65 -0.48,0.41 -1,0.62 -1.55,0.62 h -42.32 c -0.69,0 -1.24,-0.21 -1.65,-0.62 -0.41,-0.41 -0.62,-0.96 -0.62,-1.65 0,-0.69 0.21,-1.24 0.62,-1.65 0.41,-0.41 0.96,-0.62 1.65,-0.62 h 5.57 l -26.83,-56.35 h -9.91 v 56.35 h 4.75 c 0.69,0 1.24,0.21 1.65,0.62 0.41,0.41 0.62,0.96 0.62,1.65 0,0.69 -0.21,1.24 -0.62,1.65 -0.41,0.41 -0.96,0.62 -1.65,0.62 h -37.36 c -0.69,0 -1.24,-0.21 -1.65,-0.62 -0.41,-0.41 -0.62,-0.96 -0.62,-1.65 0,-0.69 0.21,-1.24 0.62,-1.65 0.41,-0.41 0.96,-0.62 1.65,-0.62 h 4.95 V 525.68 h -4.95 c -0.69,0 -1.24,-0.24 -1.65,-0.72 -0.41,-0.48 -0.62,-1.03 -0.62,-1.65 0,-0.62 0.21,-1.13 0.62,-1.55 0.41,-0.41 0.96,-0.62 1.65,-0.62 13.74,0 34.38,0 61.91,0 z m -29.52,79.06 h 6.4 c 5.64,0 10.73,-0.96 15.27,-2.89 4.54,-1.93 8.22,-4.44 11.04,-7.53 2.82,-3.1 5.06,-6.71 6.71,-10.84 1.79,-4.82 2.68,-9.91 2.68,-15.28 0,-5.37 -0.96,-10.53 -2.89,-15.48 -2.48,-6.61 -6.37,-11.97 -11.66,-16.1 -5.3,-4.13 -11.66,-6.26 -19.09,-6.4 h -8.46 z"
         id="path88"
         style="fill:#0078c6" />
      <path
         class="st5"
         d="m 1002.59,521.14 c 11.83,0 29.52,0 53.05,0 23.53,0 41.21,0 53.05,0 0.55,0 1.06,0.21 1.55,0.62 0.48,0.41 0.72,0.96 0.72,1.65 v 45.21 c 0,0.55 -0.24,1.07 -0.72,1.55 -0.48,0.48 -1,0.72 -1.55,0.72 -1.52,0 -2.27,-0.76 -2.27,-2.27 -0.69,-7.71 -1.52,-14 -2.48,-18.89 -0.96,-4.88 -2.62,-8.91 -4.95,-12.08 -4.82,-7.02 -14.24,-11.01 -28.28,-11.97 h -1.24 v 135.41 h 4.95 c 0.55,0 1.03,0.24 1.44,0.72 0.41,0.48 0.62,1.03 0.62,1.65 0,0.62 -0.21,1.14 -0.62,1.55 -0.41,0.41 -0.9,0.62 -1.44,0.62 h -37.57 c -0.55,0 -1.07,-0.21 -1.55,-0.62 -0.48,-0.41 -0.72,-0.93 -0.72,-1.55 0,-0.62 0.24,-1.17 0.72,-1.65 0.48,-0.48 1,-0.72 1.55,-0.72 h 4.95 V 525.68 h -1.24 c -14.04,0.96 -23.46,4.95 -28.28,11.97 -1.65,2.2 -2.96,4.99 -3.92,8.36 -0.96,3.37 -1.69,6.71 -2.17,10.01 -0.48,3.3 -0.93,7.5 -1.34,12.59 -0.14,1.52 -0.9,2.27 -2.27,2.27 -0.69,0 -1.24,-0.24 -1.65,-0.72 -0.41,-0.48 -0.62,-1 -0.62,-1.55 V 523.4 c 0,-0.69 0.21,-1.24 0.62,-1.65 0.42,-0.41 0.97,-0.61 1.66,-0.61 z"
         id="path89"
         style="fill:#0078c6" />
      <path
         class="st5"
         d="m 1230.27,521.14 h 30.14 c 0.41,0 0.79,0.1 1.14,0.31 0.34,0.21 0.62,0.48 0.83,0.83 0.21,0.35 0.31,0.72 0.31,1.14 0,0.55 -0.21,1.07 -0.62,1.55 -0.41,0.48 -0.96,0.72 -1.65,0.72 h -4.75 V 661.1 h 4.75 c 0.41,0 0.79,0.1 1.14,0.31 0.34,0.21 0.62,0.48 0.83,0.83 0.21,0.34 0.31,0.72 0.31,1.13 0,0.69 -0.21,1.24 -0.62,1.65 -0.41,0.41 -0.96,0.62 -1.65,0.62 h -37.36 c -0.41,0 -0.79,-0.1 -1.14,-0.31 -0.35,-0.21 -0.62,-0.48 -0.83,-0.83 -0.21,-0.34 -0.31,-0.72 -0.31,-1.13 0,-0.55 0.24,-1.06 0.72,-1.55 0.48,-0.48 1,-0.72 1.55,-0.72 h 4.95 V 535.8 l -44.59,117.87 -0.21,0.21 v 0.21 l -0.21,0.21 v 0.21 h -0.21 v 0.21 h -0.21 v 0.21 h -0.21 -0.21 v 0.21 h -0.21 -0.21 -0.21 -0.21 -0.21 -2.68 c -1.1,0 -1.79,-0.48 -2.06,-1.44 l -44.79,-118.07 v 125.51 h 4.13 c 0.69,0 1.24,0.21 1.65,0.62 0.41,0.41 0.62,0.96 0.62,1.65 0,0.69 -0.21,1.24 -0.62,1.65 -0.41,0.41 -0.96,0.62 -1.65,0.62 h -12.59 c -0.69,0 -1.24,-0.21 -1.65,-0.62 -0.41,-0.41 -0.62,-0.96 -0.62,-1.65 0,-0.69 0.21,-1.24 0.62,-1.65 0.41,-0.41 0.96,-0.62 1.65,-0.62 h 4.13 V 525.68 h -3.3 c -0.69,0 -1.24,-0.24 -1.65,-0.72 -0.41,-0.48 -0.62,-1.03 -0.62,-1.65 0,-0.62 0.21,-1.13 0.62,-1.55 0.41,-0.41 0.96,-0.62 1.65,-0.62 h 5.37 0.21 24.77 6.61 c 0.69,0 1.24,0.21 1.65,0.62 0.41,0.41 0.62,0.96 0.62,1.65 0,0.41 -0.1,0.79 -0.31,1.13 -0.21,0.35 -0.48,0.62 -0.83,0.83 -0.35,0.21 -0.72,0.31 -1.14,0.31 h -3.51 l 34.89,91.86 34.68,-91.86 h -3.92 c -0.55,0 -1.07,-0.24 -1.55,-0.72 -0.48,-0.48 -0.72,-1.03 -0.72,-1.65 0,-0.62 0.24,-1.13 0.72,-1.55 0.48,-0.41 1,-0.62 1.55,-0.62 z"
         id="path90"
         style="fill:#0078c6" />
      <path
         class="st5"
         d="m 1277.75,661.09 h 4.95 V 525.68 h -4.95 c -0.69,0 -1.24,-0.24 -1.65,-0.72 -0.41,-0.48 -0.62,-1 -0.62,-1.55 0,-0.41 0.1,-0.79 0.31,-1.14 0.21,-0.34 0.48,-0.62 0.83,-0.83 0.34,-0.21 0.72,-0.31 1.14,-0.31 9.08,0 23.98,0 44.69,0 20.71,0 36.57,0 47.58,0 0.69,0 1.24,0.21 1.65,0.62 0.41,0.41 0.62,0.96 0.62,1.65 0,2.06 0.55,4.61 1.65,7.64 1.24,2.89 2.68,5.51 4.33,7.84 3.16,3.58 6.05,7.57 8.67,11.97 0.83,1.38 0.58,2.45 -0.72,3.2 -1.31,0.76 -2.37,0.45 -3.2,-0.93 -3.58,-6.19 -7.71,-11.35 -12.39,-15.48 -3.03,-2.75 -6.54,-5.09 -10.53,-7.02 -6.06,-2.75 -12.39,-4.4 -18.99,-4.95 h -30.76 v 55.53 h 5.37 c 5.5,-0.69 9.63,-2.61 12.39,-5.78 2.48,-2.89 4.26,-7.57 5.37,-14.04 0.27,-1.37 1.17,-1.93 2.68,-1.65 1.24,0.14 1.86,0.9 1.86,2.27 -0.28,6.74 0.55,13.49 2.48,20.23 1.93,6.88 4.68,13.08 8.26,18.58 0.83,1.24 0.62,2.27 -0.62,3.1 -1.24,0.83 -2.27,0.69 -3.1,-0.41 -5.09,-6.47 -9.43,-10.87 -13,-13.21 -4.27,-2.89 -9.63,-4.47 -16.1,-4.75 h -5.57 v 75.55 h 30.34 c 5.92,0 12.39,-1.65 19.4,-4.95 3.99,-1.93 7.5,-4.26 10.53,-7.02 4.68,-4.13 8.81,-9.29 12.39,-15.48 0.83,-1.37 1.89,-1.68 3.2,-0.93 1.31,0.76 1.55,1.83 0.72,3.2 -2.62,4.41 -5.51,8.4 -8.67,11.97 -1.65,2.34 -3.1,4.95 -4.33,7.84 -1.1,3.03 -1.65,5.57 -1.65,7.64 0,0.69 -0.21,1.24 -0.62,1.65 -0.41,0.41 -0.96,0.62 -1.65,0.62 -11.01,0 -26.87,0 -47.58,0 -20.71,0 -35.61,0 -44.69,0 -0.69,0 -1.24,-0.21 -1.65,-0.62 -0.41,-0.41 -0.62,-0.93 -0.62,-1.55 0,-0.62 0.21,-1.17 0.62,-1.65 0.39,-0.48 0.94,-0.72 1.63,-0.72 z"
         id="path91"
         style="fill:#0078c6" />
      <path
         class="st5"
         d="m 1399.74,521.14 c 2.34,0 5.68,0 10.01,0 4.33,0 8.26,0 11.77,0 3.51,0 6.84,0 10.01,0 0.96,0 1.65,0.48 2.06,1.44 l 58.83,130.25 V 525.68 h -4.13 c -0.55,0 -1.07,-0.24 -1.55,-0.72 -0.48,-0.48 -0.72,-1.03 -0.72,-1.65 0,-0.62 0.24,-1.13 0.72,-1.55 0.48,-0.41 1,-0.62 1.55,-0.62 h 12.59 c 0.41,0 0.79,0.1 1.14,0.31 0.34,0.21 0.62,0.48 0.83,0.83 0.21,0.35 0.31,0.72 0.31,1.14 0,0.55 -0.21,1.07 -0.62,1.55 -0.41,0.48 -0.96,0.72 -1.65,0.72 h -3.92 V 661.1 h 3.92 c 0.41,0 0.79,0.1 1.14,0.31 0.34,0.21 0.62,0.48 0.83,0.83 0.21,0.34 0.31,0.72 0.31,1.13 0,0.69 -0.21,1.24 -0.62,1.65 -0.41,0.41 -0.96,0.62 -1.65,0.62 h -6.19 -25.39 c -1.1,0 -1.86,-0.48 -2.27,-1.45 L 1408.43,533.94 V 661.1 h 3.92 c 0.69,0 1.24,0.24 1.65,0.72 0.41,0.48 0.62,1.03 0.62,1.65 0,0.62 -0.21,1.14 -0.62,1.55 -0.41,0.41 -0.96,0.62 -1.65,0.62 h -12.59 c -0.69,0 -1.24,-0.21 -1.65,-0.62 -0.41,-0.41 -0.62,-0.93 -0.62,-1.55 0,-0.62 0.21,-1.17 0.62,-1.65 0.41,-0.48 0.96,-0.72 1.65,-0.72 h 4.13 V 525.68 h -4.13 c -0.69,0 -1.24,-0.24 -1.65,-0.72 -0.41,-0.48 -0.62,-1.03 -0.62,-1.65 0,-0.62 0.21,-1.13 0.62,-1.55 0.39,-0.42 0.94,-0.62 1.63,-0.62 z"
         id="path92"
         style="fill:#0078c6" />
      <path
         class="st5"
         d="m 1515.55,521.14 c 11.83,0 29.52,0 53.05,0 23.53,0 41.21,0 53.05,0 0.55,0 1.06,0.21 1.55,0.62 0.48,0.41 0.72,0.96 0.72,1.65 v 45.21 c 0,0.55 -0.24,1.07 -0.72,1.55 -0.48,0.48 -1,0.72 -1.55,0.72 -1.52,0 -2.27,-0.76 -2.27,-2.27 -0.69,-7.71 -1.52,-14 -2.48,-18.89 -0.96,-4.88 -2.62,-8.91 -4.95,-12.08 -4.82,-7.02 -14.24,-11.01 -28.28,-11.97 h -1.24 v 135.41 h 4.95 c 0.55,0 1.03,0.24 1.44,0.72 0.41,0.48 0.62,1.03 0.62,1.65 0,0.62 -0.21,1.14 -0.62,1.55 -0.41,0.41 -0.9,0.62 -1.44,0.62 h -37.57 c -0.55,0 -1.07,-0.21 -1.55,-0.62 -0.48,-0.41 -0.72,-0.93 -0.72,-1.55 0,-0.62 0.24,-1.17 0.72,-1.65 0.48,-0.48 1,-0.72 1.55,-0.72 h 4.95 V 525.68 h -1.24 c -14.04,0.96 -23.46,4.95 -28.28,11.97 -1.65,2.2 -2.96,4.99 -3.92,8.36 -0.96,3.37 -1.69,6.71 -2.17,10.01 -0.48,3.3 -0.93,7.5 -1.34,12.59 -0.14,1.52 -0.9,2.27 -2.27,2.27 -0.69,0 -1.24,-0.24 -1.65,-0.72 -0.41,-0.48 -0.62,-1 -0.62,-1.55 V 523.4 c 0,-0.69 0.21,-1.24 0.62,-1.65 0.42,-0.41 0.96,-0.61 1.66,-0.61 z"
         id="path93"
         style="fill:#0078c6" />
      <g
         id="g94">
        <path
           id="path94"
           class="st5"
           d="m 606.87695,417.56445 c -0.40734,0.1362 -0.81041,0.27836 -1.20898,0.43164 0.0103,0.15593 0.0158,0.31213 0.0176,0.4668 0.0469,0.17204 0.0915,0.34078 0.13281,0.50781 0.15532,0.14449 0.30484,0.29258 0.44922,0.44336 0.31356,0.25444 0.64251,0.51843 0.98242,0.79102 V 417.75 Z m -3.59375,10.84961 v 0.002 c 0.0116,0.0217 0.15707,0.18239 0.20899,0.24609 0.0526,0.0243 0.10363,0.0481 0.15625,0.0723 -0.11423,-0.10029 -0.23095,-0.20367 -0.34961,-0.3086 -0.007,-0.006 -0.0111,-0.008 -0.0137,-0.01 v -0.002 z m -192.59765,73.55078 c -0.257,0.22913 -0.51175,0.45899 -0.76758,0.68946 0.22907,0.2567 0.44924,0.50755 0.66406,0.75195 0.0351,-0.48026 0.0697,-0.96105 0.10352,-1.44141 z m 22.27734,26.84375 c -0.42034,0.91165 -0.89087,1.80466 -1.25195,2.74024 -0.0604,0.15648 -0.089,0.24025 -0.0899,0.26172 v 0.002 l 0.002,0.002 v 0.002 h 0.002 v -0.002 h 0.002 c 0.0723,-0.0788 0.67122,-1.3692 1.35743,-3.0039 -0.007,-6.4e-4 -0.0147,-9.6e-4 -0.0215,-0.002 z"
           style="fill:#0078c6" />
      </g>
      <rect
         x="1185.2"
         y="698.65002"
         class="st4"
         width="438.70999"
         height="13.41"
         id="rect94"
         style="fill:#20bbff" />
    </g>
  </g>
</svg>
