<svg version="1.1" id="Layer_1" xmlns="http://www.w3.org/2000/svg" xmlns:xlink="http://www.w3.org/1999/xlink" x="0px" y="0px"
	 viewBox="530 675 1100 50" style="enable-background:new 0 0 1920 1080;" xml:space="preserve">
<style type="text/css">
	.st4{fill:#20BBFF;}
	.st5{fill:#0078C6;}
</style>
	<path class="st4" d="M535.55,698.34c0-10.33,7.55-18.28,18.94-18.28c5.47,0,9.12,1.72,11.04,2.94c0.51,0.3,0.56,0.81,0.3,1.32
		l-2.18,3.9c-0.3,0.56-0.76,0.66-1.27,0.3c-1.37-0.76-3.85-1.93-7.5-1.93c-7.34,0-12.16,4.61-12.16,11.7
		c0,7.09,4.76,11.75,12.16,11.75c3.65,0,6.13-1.11,7.5-1.87c0.51-0.3,0.96-0.2,1.27,0.3l2.18,3.9c0.25,0.51,0.25,0.96-0.41,1.37
		c-1.52,1.01-5.17,2.84-10.94,2.84C543.05,716.57,535.55,708.62,535.55,698.34z"/>
	<path class="st4" d="M568.58,698.39c0-10.33,7.95-18.34,18.84-18.34c10.79,0,18.64,7.8,18.64,18.34
		c0,10.43-7.85,18.18-18.64,18.18C576.53,716.57,568.58,708.67,568.58,698.39z M598.92,698.39c0-6.79-4.91-11.85-11.5-11.85
		c-6.74,0-11.7,5.12-11.7,11.85c0,6.69,4.96,11.75,11.7,11.75C594,710.14,598.92,705.13,598.92,698.39z"/>
	<path class="st4" d="M650.23,715.21c0,0.66-0.35,0.91-0.96,0.91h-4.91c-0.66,0-0.96-0.36-0.96-0.91l-0.3-20.46l-9.47,16.56
		c-0.2,0.46-0.61,0.66-1.11,0.66h-2.89c-0.51,0-0.86-0.2-1.11-0.66l-9.22-16.56l-0.3,20.46c0,0.56-0.36,0.91-0.96,0.91h-4.96
		c-0.66,0-0.91-0.3-0.91-0.91l1.01-33.78c0-0.56,0.3-0.91,1.01-0.91h2.68c0.51,0,0.86,0.2,1.11,0.66l13.12,22.74l13.37-22.74
		c0.25-0.46,0.61-0.66,1.11-0.66h2.63c0.66,0,1.06,0.36,1.06,0.96L650.23,715.21z"/>
	<path class="st4" d="M685.54,693.38c0,7.7-6.03,12.46-14.84,12.51h-5.27v9.32c0,0.56-0.35,0.91-0.91,0.91h-5.12
		c-0.61,0-0.96-0.36-0.96-0.91v-33.78c0-0.56,0.36-0.91,0.96-0.91H671C679.61,680.51,685.54,685.53,685.54,693.38z M678.34,693.27
		c0-3.6-2.84-6.58-7.7-6.58h-5.22v12.97h5.22C675.61,699.66,678.34,696.77,678.34,693.27z"/>
	<path class="st4" d="M715.42,710.9v4.31c0,0.56-0.35,0.91-0.96,0.91h-22.28c-0.61,0-0.96-0.36-0.96-0.91v-33.78
		c0-0.56,0.36-0.91,0.96-0.91h5.12c0.56,0,0.91,0.36,0.91,0.91v28.57h16.26C715.07,709.99,715.42,710.29,715.42,710.9z"/>
	<path class="st4" d="M720.19,715.21v-33.78c0-0.56,0.36-0.91,0.96-0.91h5.12c0.56,0,0.91,0.36,0.91,0.91v33.78
		c0,0.56-0.35,0.91-0.91,0.91h-5.12C720.54,716.12,720.19,715.76,720.19,715.21z"/>
	<path class="st4" d="M765.82,716.12h-5.42c-0.51,0-0.86-0.25-1.06-0.76l-2.53-6.13h-15.25l-2.53,6.13
		c-0.2,0.51-0.56,0.76-1.06,0.76h-5.42c-0.71,0-1.01-0.41-0.76-1.06l14.84-33.83c0.15-0.46,0.61-0.71,1.11-0.71h3.04
		c0.51,0,0.91,0.25,1.11,0.71l14.69,33.83C766.84,715.71,766.53,716.12,765.82,716.12z M743.79,703.3h10.79l-5.37-12.86
		L743.79,703.3z"/>
	<path class="st4" d="M803.36,681.42v34.19c0,0.61-0.35,0.91-0.96,0.91h-2.28c-0.51,0-0.86-0.15-1.16-0.51l-20.77-23.3v22.49
		c0,0.56-0.35,0.91-0.96,0.91h-4.96c-0.56,0-0.91-0.36-0.91-0.91v-34.14c0-0.56,0.35-0.91,0.91-0.91h2.33
		c0.51,0,0.86,0.2,1.16,0.51l20.71,23.25v-22.49c0-0.56,0.35-0.91,0.91-0.91h5.01C803,680.51,803.36,680.87,803.36,681.42z"/>
	<path class="st4" d="M809.85,698.34c0-10.33,7.55-18.28,18.94-18.28c5.47,0,9.12,1.72,11.04,2.94c0.51,0.3,0.56,0.81,0.3,1.32
		l-2.18,3.9c-0.3,0.56-0.76,0.66-1.27,0.3c-1.37-0.76-3.85-1.93-7.5-1.93c-7.34,0-12.16,4.61-12.16,11.7
		c0,7.09,4.76,11.75,12.16,11.75c3.65,0,6.13-1.11,7.5-1.87c0.51-0.3,0.96-0.2,1.27,0.3l2.18,3.9c0.25,0.51,0.25,0.96-0.41,1.37
		c-1.52,1.01-5.17,2.84-10.94,2.84C817.34,716.57,809.85,708.62,809.85,698.34z"/>
	<path class="st4" d="M870.58,710.9v4.31c0,0.56-0.35,0.91-0.91,0.91h-22.69c-0.61,0-0.96-0.36-0.96-0.91v-33.78
		c0-0.56,0.35-0.91,0.96-0.91h22.49c0.61,0,0.96,0.36,0.96,0.91v4.31c0,0.61-0.35,0.96-0.96,0.96H853v8.36h14.38
		c0.61,0,0.96,0.36,0.96,0.96v4.31c0,0.56-0.35,0.91-0.96,0.91H853v8.76h16.66C870.22,709.99,870.58,710.29,870.58,710.9z"/>
	<path class="st4" d="M887.04,712.88c-0.46-0.36-0.56-0.91-0.25-1.47l2.43-3.85c0.25-0.51,0.76-0.61,1.27-0.25
		c2.99,2.18,6.28,3.19,9.72,3.19c3.19,0,5.57-1.37,5.57-4.25c0-2.84-2.03-4.1-7.34-5.57c-6.03-1.67-10.74-4-10.74-10.23
		c0-6.28,5.17-10.38,12.81-10.38c4.76,0,8.51,1.22,11.19,3.09c0.51,0.35,0.51,0.86,0.2,1.32l-2.18,3.6
		c-0.3,0.56-0.86,0.66-1.37,0.3c-2.23-1.42-4.71-2.23-7.9-2.23c-3.24,0-5.67,1.22-5.67,3.85c0,2.58,2.33,3.39,7.24,4.86
		c6.03,1.77,10.69,4.1,10.69,10.94c0,6.64-5.01,10.79-12.61,10.79C894.59,716.57,890.34,715.21,887.04,712.88z"/>
	<path class="st4" d="M917.08,698.39c0-10.33,7.95-18.34,18.84-18.34c10.79,0,18.64,7.8,18.64,18.34
		c0,10.43-7.85,18.18-18.64,18.18C925.03,716.57,917.08,708.67,917.08,698.39z M947.42,698.39c0-6.79-4.91-11.85-11.5-11.85
		c-6.74,0-11.7,5.12-11.7,11.85c0,6.69,4.96,11.75,11.7,11.75C942.51,710.14,947.42,705.13,947.42,698.39z"/>
	<path class="st4" d="M985.26,710.9v4.31c0,0.56-0.35,0.91-0.96,0.91h-22.28c-0.61,0-0.96-0.36-0.96-0.91v-33.78
		c0-0.56,0.36-0.91,0.96-0.91h5.12c0.56,0,0.91,0.36,0.91,0.91v28.57h16.26C984.91,709.99,985.26,710.29,985.26,710.9z"/>
	<path class="st4" d="M988.56,700.82v-19.4c0-0.56,0.3-0.91,0.91-0.91h5.17c0.61,0,0.91,0.36,0.91,0.91v19.95
		c0,4.81,2.84,8.86,8.71,8.86c5.82,0,8.66-4.05,8.66-8.86v-19.95c0-0.56,0.3-0.91,0.91-0.91h5.12c0.56,0,0.91,0.36,0.91,0.91v19.4
		c0,10.28-6.23,15.75-15.65,15.75C994.79,716.57,988.56,711.1,988.56,700.82z"/>
	<path class="st4" d="M1054.91,681.42v4.31c0,0.61-0.35,0.96-0.96,0.96h-10.84v28.51c0,0.56-0.35,0.91-0.96,0.91h-5.12
		c-0.61,0-0.91-0.36-0.91-0.91v-28.51h-10.94c-0.61,0-0.91-0.35-0.91-0.96v-4.31c0-0.56,0.3-0.91,0.91-0.91h28.77
		C1054.56,680.51,1054.91,680.87,1054.91,681.42z"/>
	<path class="st4" d="M1059.73,715.21v-33.78c0-0.56,0.36-0.91,0.96-0.91h5.12c0.56,0,0.91,0.36,0.91,0.91v33.78
		c0,0.56-0.35,0.91-0.91,0.91h-5.12C1060.08,716.12,1059.73,715.76,1059.73,715.21z"/>
	<path class="st4" d="M1073.15,698.39c0-10.33,7.95-18.34,18.84-18.34c10.79,0,18.64,7.8,18.64,18.34
		c0,10.43-7.85,18.18-18.64,18.18C1081.1,716.57,1073.15,708.67,1073.15,698.39z M1103.49,698.39c0-6.79-4.91-11.85-11.5-11.85
		c-6.74,0-11.7,5.12-11.7,11.85c0,6.69,4.96,11.75,11.7,11.75C1098.58,710.14,1103.49,705.13,1103.49,698.39z"/>
	<path class="st4" d="M1149.18,681.42v34.19c0,0.61-0.35,0.91-0.96,0.91h-2.28c-0.51,0-0.86-0.15-1.16-0.51l-20.77-23.3v22.49
		c0,0.56-0.35,0.91-0.96,0.91h-4.96c-0.56,0-0.91-0.36-0.91-0.91v-34.14c0-0.56,0.35-0.91,0.91-0.91h2.33
		c0.51,0,0.86,0.2,1.16,0.51l20.71,23.25v-22.49c0-0.56,0.35-0.91,0.91-0.91h5.01C1148.82,680.51,1149.18,680.87,1149.18,681.42z"
		/>
	<path class="st4" d="M1155.57,712.88c-0.46-0.36-0.56-0.91-0.25-1.47l2.43-3.85c0.25-0.51,0.76-0.61,1.27-0.25
		c2.99,2.18,6.28,3.19,9.72,3.19c3.19,0,5.57-1.37,5.57-4.25c0-2.84-2.03-4.1-7.34-5.57c-6.03-1.67-10.74-4-10.74-10.23
		c0-6.28,5.17-10.38,12.81-10.38c4.76,0,8.51,1.22,11.19,3.09c0.51,0.35,0.51,0.86,0.2,1.32l-2.18,3.6
		c-0.3,0.56-0.86,0.66-1.37,0.3c-2.23-1.42-4.71-2.23-7.9-2.23c-3.24,0-5.67,1.22-5.67,3.85c0,2.58,2.33,3.39,7.24,4.86
		c6.03,1.77,10.69,4.1,10.69,10.94c0,6.64-5.01,10.79-12.61,10.79C1163.11,716.57,1158.86,715.21,1155.57,712.88z"/>
	<rect x="1185.2" y="698.65" class="st4" width="438.71" height="13.41"/>
	<path class="st5" d="M656.32,661.82c-0.48-0.48-1-0.72-1.54-0.72h-4.96l-37.36-135.41h2.47c0.7,0,1.24-0.25,1.65-0.72
		c0.41-0.49,0.63-1.04,0.63-1.65s-0.22-1.13-0.63-1.54c-0.41-0.42-0.96-0.63-1.65-0.63h-35.5c-0.41,0-0.79,0.11-1.13,0.31
		c-0.34,0.21-0.62,0.48-0.82,0.82c-0.21,0.36-0.31,0.72-0.31,1.13c0,0.56,0.25,1.07,0.72,1.56c0.48,0.48,1,0.72,1.54,0.72h4.55
		l0.21,0.82l-21.48,77.2v0.41l-15.68,56.98h-4.13c-0.7,0-1.24,0.25-1.65,0.72c-0.41,0.48-0.62,1.03-0.62,1.65
		c0,0.62,0.21,1.13,0.62,1.54c0.41,0.41,0.96,0.62,1.65,0.62h12.59c0.68,0,1.23-0.21,1.65-0.62c0.41-0.41,0.62-0.93,0.62-1.54
		c0-0.63-0.21-1.18-0.62-1.65c-0.42-0.48-0.97-0.72-1.65-0.72h-3.72l14.86-54.29h39.63l1.54,5.65l13.32,48.64h-3.91
		c-0.7,0-1.24,0.25-1.65,0.72c-0.41,0.48-0.63,1.03-0.63,1.65c0,0.62,0.22,1.13,0.63,1.54c0.41,0.41,0.96,0.62,1.65,0.62h37.57
		c0.55,0,1.07-0.21,1.54-0.62c0.48-0.41,0.72-0.93,0.72-1.54C657.04,662.84,656.8,662.3,656.32,661.82z M567.87,602.27l18.58-67.3
		l2.21,8.02l16.36,59.28H567.87z"/>
	<path class="st5" d="M832.91,525.68l37.36,135.41h4.95c0.55,0,1.06,0.24,1.55,0.72c0.48,0.48,0.72,1.03,0.72,1.65
		s-0.24,1.14-0.72,1.55c-0.48,0.41-1,0.62-1.55,0.62h-37.57c-0.69,0-1.24-0.21-1.65-0.62c-0.41-0.41-0.62-0.93-0.62-1.55
		s0.21-1.17,0.62-1.65c0.41-0.48,0.96-0.72,1.65-0.72h3.92l-14.86-54.29h-39.63l-14.86,54.29h3.72c0.69,0,1.24,0.24,1.65,0.72
		c0.41,0.48,0.62,1.03,0.62,1.65s-0.21,1.14-0.62,1.55c-0.41,0.41-0.96,0.62-1.65,0.62h-12.59c-0.69,0-1.24-0.21-1.65-0.62
		c-0.41-0.41-0.62-0.93-0.62-1.55s0.21-1.17,0.62-1.65c0.41-0.48,0.96-0.72,1.65-0.72h4.13l15.69-56.97c0-0.14,0-0.28,0-0.41
		l21.47-77.2l-0.21-0.83h-4.54c-0.55,0-1.07-0.24-1.55-0.72c-0.48-0.48-0.72-1-0.72-1.55c0-0.41,0.1-0.79,0.31-1.14
		c0.21-0.34,0.48-0.62,0.83-0.83c0.34-0.21,0.72-0.31,1.14-0.31h35.5c0.69,0,1.24,0.21,1.65,0.62c0.41,0.41,0.62,0.93,0.62,1.55
		c0,0.62-0.21,1.17-0.62,1.65c-0.41,0.48-0.96,0.72-1.65-0.72H832.91z M825.48,602.26l-18.58-67.29l-18.58,67.29H825.48z"/>
	<path class="st5" d="M1230.27,521.14h30.14c0.41,0,0.79,0.1,1.14,0.31c0.34,0.21,0.62,0.48,0.83,0.83
		c0.21,0.35,0.31,0.72,0.31,1.14c0,0.55-0.21,1.07-0.62,1.55c-0.41,0.48-0.96,0.72-1.65,0.72h-4.75v135.41h4.75
		c0.41,0,0.79,0.1,1.14,0.31c0.34,0.21,0.62,0.48,0.83,0.83c0.21,0.34,0.31,0.72,0.31,1.13c0,0.69-0.21,1.24-0.62,1.65
		c-0.41,0.41-0.96,0.62-1.65,0.62h-37.36c-0.41,0-0.79-0.1-1.14-0.31c-0.35-0.21-0.62-0.48-0.83-0.83
		c-0.21-0.34-0.31-0.72-0.31-1.13c0-0.55,0.24-1.06,0.72-1.55c0.48-0.48,1-0.72,1.55-0.72h4.95v-125.3l-44.59,117.87l-0.21,0.21
		v0.21l-0.21,0.21v0.21h-0.21v0.21h-0.21v0.21h-0.21h-0.21v0.21h-0.21h-0.21h-0.21h-0.21h-0.21h-2.68c-1.1,0-1.79-0.48-2.06-1.44
		l-44.79-118.07v125.51h4.13c0.69,0,1.24,0.21,1.65,0.62c0.41,0.41,0.62,0.96,0.62,1.65c0,0.69-0.21,1.24-0.62,1.65
		c-0.41,0.41-0.96,0.62-1.65,0.62h-12.59c-0.69,0-1.24-0.21-1.65-0.62c-0.41-0.41-0.62-0.96-0.62-1.65c0-0.69,0.21-1.24,0.62-1.65
		c0.41-0.41,0.96-0.62,1.65-0.62h4.13V525.68h-3.3c-0.69,0-1.24-0.24-1.65-0.72c-0.41-0.48-0.62-1.03-0.62-1.65
		c0-0.62,0.21-1.13,0.62-1.55c0.41-0.41,0.96-0.62,1.65-0.62h5.37h0.21h24.77h6.61c0.69,0,1.24,0.21,1.65,0.62
		c0.41,0.41,0.62,0.96,0.62,1.65c0,0.41-0.1,0.79-0.31,1.13c-0.21,0.35-0.48,0.62-0.83,0.83c-0.35,0.21-0.72,0.31-1.14,0.31h-3.51
		l34.89,91.86l34.68-91.86h-3.92c-0.55,0-1.07-0.24-1.55-0.72c-0.48-0.48-0.72-1.03-0.72-1.65c0-0.62,0.24-1.13,0.72-1.55
		c0.48-0.41,1-0.62,1.55-0.62H1230.27z"/>
</svg> 