<?xml version="1.0" encoding="utf-8"?>
<!-- Generator: Adobe Illustrator 24.3.0, SVG Export Plug-In . SVG Version: 6.00 Build 0)  -->
<svg version="1.1" id="Layer_1" xmlns="http://www.w3.org/2000/svg" xmlns:xlink="http://www.w3.org/1999/xlink"
	 viewBox="224 336 1472 407" xml:space="preserve">
<style type="text/css">
	.st0{fill:#20BBFF;}
	.st1{fill:#0078C6;}
	.st2{fill:#007CC4;}
</style>
<g>
	<g>
		<path class="st0" d="M495.86,713.15c0-11.3,8.25-19.99,20.71-19.99c5.98,0,9.97,1.88,12.07,3.21c0.55,0.33,0.61,0.89,0.33,1.44
			l-2.38,4.26c-0.33,0.61-0.83,0.72-1.38,0.33c-1.49-0.83-4.21-2.11-8.2-2.11c-8.03,0-13.29,5.04-13.29,12.79
			c0,7.75,5.21,12.85,13.29,12.85c3.99,0,6.7-1.22,8.2-2.05c0.55-0.33,1.05-0.22,1.38,0.33l2.38,4.27c0.28,0.55,0.28,1.05-0.44,1.49
			c-1.66,1.11-5.65,3.1-11.96,3.1C504.06,733.08,495.86,724.39,495.86,713.15z"/>
		<path class="st0" d="M531.98,713.2c0-11.3,8.69-20.05,20.6-20.05c11.8,0,20.38,8.53,20.38,20.05c0,11.41-8.58,19.88-20.38,19.88
			C540.67,733.08,531.98,724.44,531.98,713.2z M565.15,713.2c0-7.42-5.37-12.96-12.57-12.96c-7.37,0-12.79,5.59-12.79,12.96
			c0,7.31,5.43,12.85,12.79,12.85C559.78,726.05,565.15,720.57,565.15,713.2z"/>
		<path class="st0" d="M621.26,731.59c0,0.72-0.39,1-1.05,1h-5.37c-0.72,0-1.05-0.39-1.05-1l-0.33-22.38l-10.36,18.11
			c-0.22,0.5-0.66,0.72-1.22,0.72h-3.16c-0.55,0-0.94-0.22-1.22-0.72l-10.08-18.11l-0.33,22.38c0,0.61-0.39,1-1.05,1h-5.43
			c-0.72,0-1-0.33-1-1l1.11-36.94c0-0.61,0.33-1,1.11-1h2.94c0.55,0,0.94,0.22,1.22,0.72l14.34,24.87l14.62-24.87
			c0.28-0.5,0.66-0.72,1.22-0.72h2.88c0.72,0,1.16,0.39,1.16,1.05L621.26,731.59z"/>
		<path class="st0" d="M659.87,707.72c0,8.42-6.59,13.62-16.23,13.68h-5.76v10.19c0,0.61-0.39,1-1,1h-5.59c-0.66,0-1.05-0.39-1.05-1
			v-36.94c0-0.61,0.39-1,1.05-1h12.68C653.39,693.65,659.87,699.13,659.87,707.72z M652.01,707.61c0-3.93-3.1-7.2-8.42-7.2h-5.7
			v14.18h5.7C649.02,714.59,652.01,711.43,652.01,707.61z"/>
		<path class="st0" d="M692.55,726.88v4.71c0,0.61-0.39,1-1.05,1h-24.37c-0.66,0-1.05-0.39-1.05-1v-36.94c0-0.61,0.39-1,1.05-1h5.59
			c0.61,0,1,0.39,1,1v31.24h17.78C692.16,725.88,692.55,726.22,692.55,726.88z"/>
		<path class="st0" d="M697.76,731.59v-36.94c0-0.61,0.39-1,1.05-1h5.59c0.61,0,1,0.39,1,1v36.94c0,0.61-0.39,1-1,1h-5.59
			C698.15,732.59,697.76,732.2,697.76,731.59z"/>
		<path class="st0" d="M747.67,732.59h-5.93c-0.55,0-0.94-0.28-1.16-0.83l-2.77-6.7h-16.67l-2.77,6.7
			c-0.22,0.55-0.61,0.83-1.16,0.83h-5.93c-0.78,0-1.11-0.44-0.83-1.16l16.23-37c0.17-0.5,0.66-0.78,1.22-0.78h3.32
			c0.55,0,1,0.28,1.22,0.78l16.06,37C748.77,732.14,748.44,732.59,747.67,732.59z M723.57,718.57h11.8l-5.87-14.07L723.57,718.57z"
			/>
		<path class="st0" d="M788.71,694.65v37.38c0,0.66-0.39,1-1.05,1h-2.49c-0.55,0-0.94-0.17-1.27-0.55L761.18,707v24.59
			c0,0.61-0.39,1-1.05,1h-5.43c-0.61,0-1-0.39-1-1v-37.33c0-0.61,0.39-1,1-1h2.55c0.55,0,0.94,0.22,1.27,0.55l22.65,25.42v-24.59
			c0-0.61,0.39-1,1-1h5.48C788.32,693.65,788.71,694.04,788.71,694.65z"/>
		<path class="st0" d="M795.81,713.15c0-11.3,8.25-19.99,20.71-19.99c5.98,0,9.97,1.88,12.07,3.21c0.55,0.33,0.61,0.89,0.33,1.44
			l-2.38,4.26c-0.33,0.61-0.83,0.72-1.38,0.33c-1.49-0.83-4.21-2.11-8.2-2.11c-8.03,0-13.29,5.04-13.29,12.79
			c0,7.75,5.21,12.85,13.29,12.85c3.99,0,6.7-1.22,8.2-2.05c0.55-0.33,1.05-0.22,1.38,0.33l2.38,4.27c0.28,0.55,0.28,1.05-0.44,1.49
			c-1.66,1.11-5.65,3.1-11.96,3.1C804,733.08,795.81,724.39,795.81,713.15z"/>
		<path class="st0" d="M862.22,726.88v4.71c0,0.61-0.39,1-1,1h-24.81c-0.66,0-1.05-0.39-1.05-1v-36.94c0-0.61,0.39-1,1.05-1H861
			c0.66,0,1.05,0.39,1.05,1v4.71c0,0.66-0.39,1.05-1.05,1.05h-18v9.14h15.73c0.66,0,1.05,0.39,1.05,1.05v4.71c0,0.61-0.39,1-1.05,1
			H843v9.58h18.22C861.83,725.88,862.22,726.22,862.22,726.88z"/>
		<path class="st0" d="M880.22,729.04c-0.5-0.39-0.61-1-0.28-1.61l2.66-4.21c0.28-0.55,0.83-0.67,1.38-0.28
			c3.27,2.38,6.87,3.49,10.63,3.49c3.49,0,6.09-1.49,6.09-4.65c0-3.1-2.22-4.49-8.03-6.09c-6.59-1.83-11.74-4.38-11.74-11.19
			c0-6.87,5.65-11.35,14.01-11.35c5.21,0,9.3,1.33,12.24,3.38c0.55,0.39,0.55,0.94,0.22,1.44l-2.38,3.93
			c-0.33,0.61-0.94,0.72-1.5,0.33c-2.44-1.55-5.15-2.44-8.64-2.44c-3.54,0-6.2,1.33-6.2,4.21c0,2.82,2.55,3.71,7.92,5.32
			c6.59,1.94,11.69,4.49,11.69,11.96c0,7.26-5.48,11.8-13.79,11.8C888.47,733.08,883.82,731.59,880.22,729.04z"/>
		<path class="st0" d="M913.07,713.2c0-11.3,8.69-20.05,20.6-20.05c11.8,0,20.38,8.53,20.38,20.05c0,11.41-8.58,19.88-20.38,19.88
			C921.76,733.08,913.07,724.44,913.07,713.2z M946.24,713.2c0-7.42-5.37-12.96-12.57-12.96c-7.37,0-12.79,5.59-12.79,12.96
			c0,7.31,5.43,12.85,12.79,12.85C940.87,726.05,946.24,720.57,946.24,713.2z"/>
		<path class="st0" d="M987.62,726.88v4.71c0,0.61-0.39,1-1.05,1H962.2c-0.66,0-1.05-0.39-1.05-1v-36.94c0-0.61,0.39-1,1.05-1h5.59
			c0.61,0,1,0.39,1,1v31.24h17.78C987.23,725.88,987.62,726.22,987.62,726.88z"/>
		<path class="st0" d="M991.23,715.86v-21.21c0-0.61,0.33-1,1-1h5.65c0.66,0,1,0.39,1,1v21.82c0,5.26,3.1,9.69,9.53,9.69
			c6.37,0,9.47-4.43,9.47-9.69v-21.82c0-0.61,0.33-1,1-1h5.59c0.61,0,1,0.39,1,1v21.21c0,11.24-6.81,17.22-17.11,17.22
			S991.23,727.1,991.23,715.86z"/>
		<path class="st0" d="M1063.79,694.65v4.71c0,0.66-0.39,1.05-1.05,1.05h-11.85v31.18c0,0.61-0.39,1-1.05,1h-5.59
			c-0.66,0-1-0.39-1-1v-31.18h-11.96c-0.66,0-1-0.39-1-1.05v-4.71c0-0.61,0.33-1,1-1h31.46
			C1063.4,693.65,1063.79,694.04,1063.79,694.65z"/>
		<path class="st0" d="M1069.05,731.59v-36.94c0-0.61,0.39-1,1.05-1h5.59c0.61,0,1,0.39,1,1v36.94c0,0.61-0.39,1-1,1h-5.59
			C1069.44,732.59,1069.05,732.2,1069.05,731.59z"/>
		<path class="st0" d="M1083.73,713.2c0-11.3,8.69-20.05,20.6-20.05c11.8,0,20.38,8.53,20.38,20.05c0,11.41-8.58,19.88-20.38,19.88
			C1092.43,733.08,1083.73,724.44,1083.73,713.2z M1116.91,713.2c0-7.42-5.37-12.96-12.57-12.96c-7.37,0-12.79,5.59-12.79,12.96
			c0,7.31,5.43,12.85,12.79,12.85C1111.53,726.05,1116.91,720.57,1116.91,713.2z"/>
		<path class="st0" d="M1166.87,694.65v37.38c0,0.66-0.39,1-1.05,1h-2.49c-0.55,0-0.94-0.17-1.27-0.55L1139.34,707v24.59
			c0,0.61-0.39,1-1.05,1h-5.43c-0.61,0-1-0.39-1-1v-37.33c0-0.61,0.39-1,1-1h2.55c0.55,0,0.94,0.22,1.27,0.55l22.65,25.42v-24.59
			c0-0.61,0.39-1,1-1h5.48C1166.48,693.65,1166.87,694.04,1166.87,694.65z"/>
		<path class="st0" d="M1173.85,729.04c-0.5-0.39-0.61-1-0.28-1.61l2.66-4.21c0.28-0.55,0.83-0.67,1.38-0.28
			c3.27,2.38,6.87,3.49,10.63,3.49c3.49,0,6.09-1.49,6.09-4.65c0-3.1-2.22-4.49-8.03-6.09c-6.59-1.83-11.74-4.38-11.74-11.19
			c0-6.87,5.65-11.35,14.01-11.35c5.21,0,9.3,1.33,12.24,3.38c0.55,0.39,0.55,0.94,0.22,1.44l-2.38,3.93
			c-0.33,0.61-0.94,0.72-1.5,0.33c-2.44-1.55-5.15-2.44-8.64-2.44c-3.54,0-6.2,1.33-6.2,4.21c0,2.82,2.55,3.71,7.92,5.32
			c6.59,1.94,11.69,4.49,11.69,11.96c0,7.26-5.48,11.8-13.79,11.8C1182.1,733.08,1177.45,731.59,1173.85,729.04z"/>
	</g>
	<g>
		<path class="st1" d="M454.62,346.92V714h-6.07V466.78l-148.92-95.06v144.23L234,555.99V723.3h18.58V566.43l47.04-28.72v191.8
			h84.22V464.55l-65.64,40.05v-98.99l111.76,71.34v255.64h43.23V376.87l82.49,40.98v83.91h18.58v-95.43L454.62,346.92z
			 M365.27,497.65v213.28h-47.06V526.36L365.27,497.65z"/>
	</g>
	<rect x="1206.26" y="713.48" class="st0" width="479.74" height="14.66"/>
	<g>
		<path class="st2" d="M623.83,648.77c2.18,1.92,4.3,2.95,6.35,3.08v3.85c-7.7-0.38-17.45-0.58-29.25-0.58
			c-13.09,0-22.84,0.19-29.25,0.58v-3.85c4.87-0.26,8.34-0.87,10.39-1.83c2.05-0.96,3.08-2.66,3.08-5.1c0-2.31-0.77-5.39-2.31-9.24
			l-11.55-31.56h-41.95l-5,13.28c-3.59,9.24-5.39,16.36-5.39,21.36c0,4.75,1.44,8.05,4.33,9.91c2.89,1.86,7.15,2.92,12.8,3.18v3.85
			c-8.73-0.38-16.68-0.58-23.86-0.58c-5.9,0-10.78,0.19-14.63,0.58v-3.85c6.28-1.16,11.8-7.89,16.55-20.21l43.88-112.59
			c1.41,0.13,3.66,0.19,6.74,0.19c3.08,0,5.26-0.06,6.54-0.19l46.77,120.48C619.73,643.76,621.65,646.84,623.83,648.77z
			 M569.95,600.27l-19.05-51.96l-20.02,51.96H569.95z"/>
		<path class="st2" d="M676.57,600.65v33.49c0,5.13,0.54,8.89,1.64,11.26c1.09,2.38,3.01,3.95,5.77,4.72
			c2.76,0.77,7.15,1.22,13.18,1.35v4.23c-15.78-0.38-27.52-0.58-35.22-0.58c-6.42,0-14.5,0.13-24.25,0.39l-6.16,0.19v-3.85
			c4.23-0.26,7.34-0.77,9.33-1.54c1.99-0.77,3.33-2.24,4.04-4.43c0.7-2.18,1.06-5.71,1.06-10.59v-95.46c0-4.87-0.35-8.4-1.06-10.58
			c-0.71-2.18-2.05-3.66-4.04-4.43c-1.99-0.77-5.1-1.28-9.33-1.54v-3.85c6.54,0.39,16.29,0.58,29.25,0.58l21.36-0.19
			c2.57-0.13,5.51-0.19,8.85-0.19c17.32,0,30.53,3.43,39.65,10.3c9.11,6.87,13.66,16.07,13.66,27.62c0,7.06-1.8,13.83-5.39,20.3
			c-3.59,6.48-9.66,11.9-18.19,16.26c-8.53,4.36-19.86,6.54-33.97,6.54H676.57z M680.9,524.63c-1.61,0.9-2.73,2.5-3.37,4.81
			c-0.64,2.31-0.96,5.77-0.96,10.39v56.97h8.28c10.39,0,17.58-3.33,21.56-10.01c3.98-6.67,5.97-15.72,5.97-27.14
			c0-12.44-1.83-21.62-5.49-27.52c-3.66-5.9-9.78-8.85-18.38-8.85C685.04,523.29,682.5,523.74,680.9,524.63z"/>
		<path class="st2" d="M860.75,648.77c2.18,1.92,4.3,2.95,6.35,3.08v3.85c-7.7-0.38-17.45-0.58-29.25-0.58
			c-13.09,0-22.84,0.19-29.25,0.58v-3.85c4.87-0.26,8.34-0.87,10.39-1.83c2.05-0.96,3.08-2.66,3.08-5.1c0-2.31-0.77-5.39-2.31-9.24
			l-11.55-31.56h-41.95l-5,13.28c-3.59,9.24-5.39,16.36-5.39,21.36c0,4.75,1.44,8.05,4.33,9.91c2.89,1.86,7.15,2.92,12.8,3.18v3.85
			c-8.73-0.38-16.68-0.58-23.86-0.58c-5.9,0-10.78,0.19-14.63,0.58v-3.85c6.28-1.16,11.8-7.89,16.55-20.21l43.88-112.59
			c1.41,0.13,3.66,0.19,6.74,0.19c3.08,0,5.26-0.06,6.54-0.19l46.77,120.48C856.64,643.76,858.57,646.84,860.75,648.77z
			 M806.86,600.27l-19.05-51.96l-20.02,51.96H806.86z"/>
		<path class="st2" d="M998.93,647.23c-3.46,3.98-7.19,6.83-11.16,8.56c-3.98,1.73-8.79,2.6-14.43,2.6
			c-7.44,0-13.31-1.57-17.61-4.71c-4.3-3.14-7.09-8.5-8.37-16.07l-3.46-19.25c-1.67-9.37-3.69-16.26-6.06-20.69
			c-2.37-4.43-6.32-6.64-11.84-6.64h-12.51v44.26c0,4.88,0.35,8.41,1.06,10.59c0.7,2.18,2.02,3.66,3.95,4.43
			c1.92,0.77,5.07,1.28,9.43,1.54v3.85c-6.93-0.38-16.62-0.58-29.06-0.58c-13.73,0-23.86,0.19-30.41,0.58v-3.85
			c4.23-0.26,7.34-0.77,9.33-1.54c1.99-0.77,3.33-2.24,4.04-4.43c0.7-2.18,1.06-5.71,1.06-10.59v-95.46c0-4.87-0.35-8.4-1.06-10.58
			c-0.71-2.18-2.05-3.66-4.04-4.43c-1.99-0.77-5.1-1.28-9.33-1.54v-3.85c6.54,0.39,16.29,0.58,29.25,0.58l21.36-0.19
			c2.57-0.13,5.51-0.19,8.85-0.19c17.71,0,31.02,2.89,39.93,8.66c8.92,5.78,13.38,14.05,13.38,24.83c0,9.11-3.34,17.13-10.01,24.06
			c-6.67,6.93-17.71,11.29-33.1,13.09c11.55,1.03,20.14,3.53,25.79,7.51c5.64,3.98,9.3,9.94,10.97,17.9l4.43,19.82
			c1.03,5.13,2.21,8.73,3.56,10.78c1.35,2.05,3.24,3.08,5.68,3.08c1.54-0.13,2.85-0.51,3.95-1.16c1.09-0.64,2.34-1.73,3.75-3.27
			L998.93,647.23z M917.81,524.63c-1.61,0.9-2.73,2.5-3.37,4.81c-0.64,2.31-0.96,5.77-0.96,10.39v47.35h8.28
			c10.52,0,17.74-2.79,21.65-8.37c3.91-5.58,5.87-13.44,5.87-23.58c0-10.52-1.86-18.48-5.58-23.86c-3.72-5.39-9.81-8.08-18.28-8.08
			C921.95,523.29,919.42,523.74,917.81,524.63z"/>
		<path class="st2" d="M1116.72,552.15c0,6.03,0.19,10.91,0.58,14.63h-4.43c-3.08-15.78-7.28-26.88-12.61-33.3
			c-5.33-6.41-12.61-9.62-21.84-9.62h-4.43v109.89c0,5.39,0.54,9.3,1.63,11.74c1.09,2.44,3.01,4.08,5.77,4.91
			c2.76,0.84,7.15,1.32,13.18,1.44v3.85c-16.17-0.38-28.36-0.58-36.57-0.58c-8.08,0-19.82,0.19-35.22,0.58v-3.85
			c6.03-0.13,10.42-0.61,13.18-1.44c2.76-0.83,4.68-2.47,5.77-4.91c1.09-2.44,1.64-6.35,1.64-11.74V523.86h-4.23
			c-6.16,0-11.39,1.35-15.69,4.04c-4.3,2.7-7.99,7.15-11.07,13.38c-3.08,6.22-5.71,14.72-7.89,25.5h-4.43
			c0.39-3.72,0.58-8.59,0.58-14.63c0-9.62-0.45-20.53-1.35-32.72c11.67,0.39,31.5,0.58,59.47,0.58c27.97,0,47.73-0.19,59.28-0.58
			C1117.17,531.63,1116.72,542.53,1116.72,552.15z"/>
		<path class="st2" d="M1285.7,524.82c-1.92,0.77-3.24,2.25-3.94,4.43c-0.71,2.18-1.06,5.71-1.06,10.58v95.46
			c0,4.88,0.35,8.41,1.06,10.59c0.7,2.18,2.05,3.66,4.04,4.43c1.99,0.77,5.1,1.28,9.33,1.54v3.85c-7.06-0.38-17.13-0.58-30.22-0.58
			c-13.73,0-23.86,0.19-30.41,0.58v-3.85c4.62-0.26,7.99-0.77,10.1-1.54c2.12-0.77,3.56-2.24,4.33-4.43
			c0.77-2.18,1.16-5.71,1.16-10.59V534.64l-46.38,121.25h-3.08l-51.96-123.94v92.19c0,7.57,0.38,13.12,1.15,16.65
			c0.77,3.53,2.44,6.1,5,7.7c2.57,1.61,6.74,2.73,12.51,3.37v3.85c-5-0.38-11.93-0.58-20.79-0.58c-7.06,0-12.64,0.19-16.74,0.58
			v-3.85c4.23-0.64,7.34-1.73,9.33-3.27c1.99-1.54,3.34-3.98,4.04-7.31c0.7-3.34,1.06-8.28,1.06-14.82v-86.61
			c0-4.87-0.36-8.4-1.06-10.58c-0.71-2.18-2.05-3.66-4.04-4.43c-1.99-0.77-5.1-1.28-9.33-1.54v-3.85c4.1,0.39,9.69,0.58,16.74,0.58
			c11.8,0,21.94-0.19,30.41-0.58l38.88,93.73l35.41-93.15h13.66c13.09,0,23.16-0.19,30.22-0.58v3.85
			C1290.76,523.54,1287.62,524.06,1285.7,524.82z"/>
		<path class="st2" d="M1414.83,655.7c-8.73-0.38-23.42-0.58-44.07-0.58c-27.97,0-48.88,0.19-62.74,0.58v-3.85
			c4.23-0.26,7.34-0.77,9.33-1.54c1.99-0.77,3.33-2.24,4.04-4.43c0.7-2.18,1.06-5.71,1.06-10.59v-95.46c0-4.87-0.35-8.4-1.06-10.58
			c-0.71-2.18-2.05-3.66-4.04-4.43c-1.99-0.77-5.1-1.28-9.33-1.54v-3.85c13.86,0.39,34.77,0.58,62.74,0.58
			c18.86,0,32.27-0.19,40.22-0.58c-0.9,10.65-1.35,20.15-1.35,28.48c0,5.65,0.19,10.01,0.58,13.09h-4.43
			c-1.92-13.73-5.39-23.35-10.39-28.87c-5-5.52-12.06-8.28-21.17-8.28h-7.89c-3.98,0-6.86,0.32-8.66,0.96
			c-1.8,0.65-3.02,1.9-3.66,3.75c-0.64,1.86-0.96,4.84-0.96,8.95v47.73h6.16c6.8,0,11.96-2.5,15.49-7.51c3.53-5,6-10.97,7.41-17.9
			h4.43c-0.38,5.39-0.58,11.42-0.58,18.09v9.24c0,6.54,0.39,15.66,1.16,27.33h-4.43c-2.7-16.94-10.52-25.4-23.48-25.4h-6.16v48.5
			c0,4.11,0.32,7.09,0.96,8.95c0.64,1.86,1.86,3.11,3.66,3.75c1.8,0.64,4.68,0.96,8.66,0.96h9.43c9.11,0,16.46-3.11,22.04-9.33
			c5.58-6.22,9.53-16.77,11.84-31.66h4.43c-0.38,4.23-0.58,9.62-0.58,16.17C1413.48,638.25,1413.93,648,1414.83,655.7z"/>
		<path class="st2" d="M1556.86,523.29c-4.23,0.64-7.35,1.73-9.33,3.27c-1.99,1.54-3.34,3.98-4.04,7.31
			c-0.71,3.34-1.06,8.28-1.06,14.82v107.39l-4.62-0.19l-5.2,0.19l-83.53-105.85v73.9c0,7.57,0.38,13.12,1.15,16.65
			c0.77,3.53,2.44,6.1,5,7.7c2.56,1.61,6.74,2.73,12.51,3.37v3.85c-5-0.38-11.93-0.58-20.79-0.58c-7.06,0-12.64,0.19-16.74,0.58
			v-3.85c4.23-0.64,7.34-1.73,9.33-3.27c1.99-1.54,3.33-3.98,4.04-7.31c0.7-3.34,1.06-8.28,1.06-14.82v-86.61
			c0-4.87-0.36-8.4-1.06-10.58c-0.71-2.18-2.05-3.66-4.04-4.43c-1.99-0.77-5.1-1.28-9.33-1.54v-3.85c4.1,0.39,9.69,0.58,16.74,0.58
			c6.41,0,11.93-0.19,16.55-0.58l74.48,91.8V551c0-7.57-0.38-13.12-1.15-16.65c-0.77-3.53-2.44-6.09-5-7.7
			c-2.57-1.6-6.74-2.72-12.51-3.37v-3.85c5,0.39,11.93,0.58,20.79,0.58c7.18,0,12.77-0.19,16.74-0.58V523.29z"/>
		<path class="st2" d="M1684.65,552.15c0,6.03,0.19,10.91,0.58,14.63h-4.43c-3.08-15.78-7.28-26.88-12.61-33.3
			c-5.33-6.41-12.61-9.62-21.84-9.62h-4.43v109.89c0,5.39,0.54,9.3,1.64,11.74c1.09,2.44,3.01,4.08,5.77,4.91
			c2.76,0.84,7.15,1.32,13.18,1.44v3.85c-16.17-0.38-28.36-0.58-36.57-0.58c-8.08,0-19.82,0.19-35.22,0.58v-3.85
			c6.03-0.13,10.42-0.61,13.18-1.44c2.76-0.83,4.68-2.47,5.77-4.91c1.09-2.44,1.64-6.35,1.64-11.74V523.86h-4.23
			c-6.16,0-11.39,1.35-15.69,4.04c-4.3,2.7-7.99,7.15-11.07,13.38c-3.08,6.22-5.71,14.72-7.89,25.5h-4.43
			c0.39-3.72,0.58-8.59,0.58-14.63c0-9.62-0.45-20.53-1.35-32.72c11.67,0.39,31.5,0.58,59.47,0.58c27.97,0,47.73-0.19,59.28-0.58
			C1685.1,531.63,1684.65,542.53,1684.65,552.15z"/>
	</g>
</g>
</svg>
