<svg version="1.1" id="Layer_1" xmlns="http://www.w3.org/2000/svg" xmlns:xlink="http://www.w3.org/1999/xlink" x="0px" y="0px" viewBox="0 500 1100 250" style="enable-background:new 0 0 1920 1080;" xml:space="preserve">
<style type="text/css">
	.st4{fill:#20BBFF;}
	.st5{fill:#0078C6;}
</style>
<g>
	<g>
		<path class="st5" d="M603.22,581.08c-3.1,14.45-13.97,24.97-33.3,24.97c-24.47,0-36.04-17.39-36.04-39.43
			c0-21.25,11.93-40.28,36.84-40.28c20.54,0,30.52,12.11,32.41,25.08h-16.68c-1.62-5.96-5.75-11.93-16.25-11.93
			c-13.76,0-19.07,12.44-19.07,26.53c0,13.11,4.6,26.91,19.53,26.91c10.9,0,14.32-7.32,15.77-11.83H603.22z"/>
		<path class="st5" d="M748.26,564.4c0,21.58-12.89,40.14-37.97,40.14c-24.22,0-36.89-17.68-36.89-39.87
			c0-22.56,13.99-39.87,37.97-39.87C735.37,524.8,748.26,541.24,748.26,564.4z M683.9,564.31c0,15.12,6.62,26.58,20.29,26.58
			s20.09-12.47,20.09-26.29c0-14.66-6-26.18-20.38-26.18C690.01,538.42,683.9,549.39,683.9,564.31z"/>
		<path class="st5" d="M858.83,574.45c0-13.22,0.22-28.05,0.54-36.8h-0.53c-3.63,15.81-11.35,41.62-18.75,65.88h-14.22
			c-5.62-21.19-13.6-50.6-16.99-66.09h-0.53c0.65,9.08,0.98,25.04,0.98,38.33v27.76h-15.21V525.2h24.84
			c6.02,20.25,12.77,45.65,15.08,57.21h0.12c1.88-10.19,10.37-37.35,16.81-57.21h23.93v77.5h-16.1V574.45z"/>
		<path class="st5" d="M933.91,525.92h31.93c16.39,0,27.52,9.26,27.52,24c0,16.84-12.69,24.55-27.92,24.55h-14.83v28.94h-16.68
			L933.91,525.92z M951.58,561.16h12.73c7.72,0,13.18-2.99,13.18-10.9c0-8-5.77-11-12.84-11h-13.07V561.16z"/>
		<path class="st5" d="M1047.8,525.92h16.68v63.77h38.44l-1.9,13.75h-53.22V525.92z"/>
		<path class="st5" d="M1179.31,525.92v77.5h-16.68v-77.5H1179.31z"/>
		<path class="st5" d="M1252.37,585.55l-6.02,17.9h-16.41l26.2-77.5h20.96l27.34,77.5h-17.55l-6.35-17.9H1252.37z M1278.93,569.95
			c-5.48-16.35-8.98-26.8-10.84-33.76h-0.11c-1.9,7.63-5.77,19.79-10.15,33.76H1278.93z"/>
		<path class="st5" d="M1364.5,604.4v-77.5h20.68c9.65,17.41,27.45,48.79,30.99,57.23h0.22c-0.87-8.09-0.85-21.54-0.85-34.27v-22.97
			h15.12v77.5h-19.62c-8.28-15.14-28.03-51.2-31.86-60.15h-0.22c0.56,6.78,0.74,22.7,0.74,36.57v23.25H1364.5z"/>
		<path class="st5" d="M1520.4,581.08c-3.1,14.45-13.97,24.97-33.3,24.97c-24.47,0-36.04-17.39-36.04-39.43
			c0-21.25,11.93-40.28,36.84-40.28c20.54,0,30.52,12.11,32.41,25.08h-16.68c-1.62-5.96-5.75-11.93-16.25-11.93
			c-13.76,0-19.07,12.44-19.07,26.53c0,13.11,4.6,26.91,19.53,26.91c10.9,0,14.32-7.32,15.77-11.83H1520.4z"/>
		<path class="st5" d="M1612.98,568.17h-36.89v19.69h40.7l-1.98,13.75h-54.93v-77.5h54.71v13.75h-38.52V554.4h36.89V568.17z"/>
		<path class="st5" d="M1740.71,582.49c1.76,7.78,7.32,11.18,16.25,11.18c8.9,0,12.71-3.54,12.71-9.21c0-6.31-3.72-9.04-16.91-12.13
			c-20.99-4.95-26.2-12.62-26.2-23.08c0-13.51,10.06-22.68,28.32-22.68c20.48,0,28.64,11.06,29.75,22.39h-16.81
			c-0.8-4.76-3.42-9.95-13.38-9.95c-6.78,0-10.86,2.8-10.86,8.3c0,5.38,3.28,7.58,15.74,10.48c22.45,5.31,27.36,13.68,27.36,24.62
			c0,14.14-10.66,23.86-31.06,23.86c-19.58,0-29.89-9.68-31.75-23.8H1740.71z"/>
		<path class="st5" d="M1892.48,564.4c0,21.58-12.89,40.14-37.97,40.14c-24.22,0-36.89-17.68-36.89-39.87
			c0-22.56,13.99-39.87,37.97-39.87C1879.59,524.8,1892.48,541.24,1892.48,564.4z M1828.12,564.31c0,15.12,6.62,26.58,20.29,26.58
			c14.85,0,20.09-12.47,20.09-26.29c0-14.66-6-26.18-20.38-26.18C1834.23,538.42,1828.12,549.39,1828.12,564.31z"/>
		<path class="st5" d="M1940.69,525.92h16.68v63.77h38.44l-1.9,13.75h-53.22V525.92z"/>
		<path class="st5" d="M2071.13,525.92v46.18c0,14.86,7.62,19.27,15.94,19.27c9.55,0,15.54-5.2,15.54-19.27v-46.18h16.68v45.35
			c0,26.49-15.45,33.25-32.47,33.25c-17.42,0-32.41-7.05-32.41-32.92v-45.68H2071.13z"/>
		<path class="st5" d="M2172.93,535.03H2157.1v-13.75h63.52v13.75h-23.36v63.77h-16.68V535.03z"/>
		<path class="st5" d="M2264.44,525.92v77.5h-16.68v-77.5H2264.44z"/>
		<path class="st5" d="M2390.41,564.4c0,21.58-12.89,40.14-37.97,40.14c-24.22,0-36.89-17.68-36.89-39.87
			c0-22.56,13.99-39.87,37.97-39.87C2377.52,524.8,2390.41,541.24,2390.41,564.4z M2326.05,564.31c0,15.12,6.62,26.58,20.29,26.58
			s20.09-12.47,20.09-26.29c0-14.66-6-26.18-20.38-26.18C2332.16,538.42,2326.05,549.39,2326.05,564.31z"/>
		<path class="st5" d="M2499.51,604.4v-77.5h20.68c9.65,17.41,27.45,48.79,30.99,57.23h0.22c-0.87-8.09-0.85-21.54-0.85-34.27v-22.97
			h15.12v77.5h-19.62c-8.28-15.14-28.03-51.2-31.86-60.15h-0.22c0.56,6.78,0.74,22.7,0.74,36.57v23.25H2499.51z"/>
		<path class="st5" d="M2626.5,582.49c1.76,7.78,7.32,11.18,16.25,11.18c8.9,0,12.71-3.54,12.71-9.21c0-6.31-3.72-9.04-16.91-12.13
			c-20.99-4.95-26.2-12.62-26.2-23.08c0-13.51,10.06-22.68,28.32-22.68c20.48,0,28.64,11.06,29.75,22.39h-16.81
			c-0.8-4.76-3.42-9.95-13.38-9.95c-6.78,0-10.86,2.8-10.86,8.3c0,5.38,3.28,7.58,15.74,10.48c22.45,5.31,27.36,13.68,27.36,24.62
			c0,14.14-10.66,23.86-31.06,23.86c-19.58,0-29.89-9.68-31.75-23.8H2626.5z"/>
	</g>
	<g>
		<path class="st4" d="M721.23,622.79l-20.88,62.15H644.1l90.96-269.04h72.76l94.88,269.04h-60.89l-22-62.15H721.23z M810.23,609.52
			c-18.99-56.78-31.14-93.06-37.59-117.23h-0.38c-6.6,26.53-19.98,68.74-35.25,117.23H810.23z"/>
		<path class="st4" d="M912.13,639.14h110.82c56.92,0,95.55,32.16,95.55,83.31c0,58.45-44.06,85.25-96.9,85.25h-51.51v100.46h-57.96
			V639.14z M969.37,700.1h44.21c26.8,0,45.76-10.35,45.76-37.82c0-27.77-20-38.14-44.54-38.14h-45.43V700.1z"/>
		<path class="st4" d="M1190.58,622.79l-20.88,62.15h-56.94l90.96-269.04h72.76l94.88,269.04h-60.89l-22-62.15H1190.58z M1279.58,609.52
			c-18.99-56.78-31.14-93.06-37.59-117.23h-0.38c-6.6,26.53-19.98,68.74-35.25,117.23H1279.58z"/>
		<path class="st4" d="M1411.39,634.33v107.69h-56.61V512.98h117.72c58.41,0,89.84,32.32,89.84,73.86
			c0,36.1-19.56,55.65-38.93,63.66c13.26,4.92,33.28,18.79,33.28,66.97v13.28c0,18.1,0.16,38.7,3.84,51.29h-54.9
			c-4.7-11.71-5.6-31.84-5.6-60.43v-3.93c0-29.42-7.39-43.35-50.58-43.35H1411.39z M1411.39,598.6h48.56
			c31.71,0,43.95-12.11,43.95-34.62c0-21.88-14.24-34.12-42.56-34.12h-49.95V598.6z"/>
		<path class="st4" d="M1649.07,558.7h-81.41V511.2h220.5v47.5h-81.08v221.36h-58.01V558.7z"/>
		<path class="st4" d="M2005.15,643.37c0-45.91,0.73-97.36,1.9-127.78h-1.85c-12.59,54.89-39.38,144.52-65.07,228.71h-49.33
			c-19.55-73.6-47.24-175.7-59-229.45h-1.82c2.29,31.57,3.41,86.93,3.41,133.06v96.37h-52.79V512.98h86.21
			c20.87,70.3,44.29,158.48,52.35,198.58h0.44c6.55-35.37,36-129.64,58.34-198.58h83.08v269.04h-56.12V643.37z"/>
		<path class="st4" d="M2236.46,630.9v68.37h141.31l-6.88,47.69H2169.3v-269.04h190.01v47.69h-133.77v57.65h128.09V630.9z"/>
		<path class="st4" d="M2299.71,780.05V512.98h71.81c33.46,60.4,95.31,169.36,107.63,198.67h0.73c-3.02-28.07-2.96-74.8-2.96-118.91
			v-79.76h52.5v269.04h-68.12c-28.78-52.57-97.33-177.74-110.59-208.8h-0.73c1.94,23.53,2.58,78.8,2.58,127.01v81.82H2299.71z"/>
		<path class="st4" d="M2596.11,558.7h-81.41V511.2h220.5v47.5h-81.08v221.36h-58.01V558.7z"/>
	</g>
</g>
</svg> 